<svg id="visual" viewBox="0 0 480 288" width="480" height="288" xmlns="http://www.w3.org/2000/svg" xmlns:xlink="http://www.w3.org/1999/xlink" version="1.1"><rect x="0" y="0" width="480" height="288" fill="#B8B8B8"></rect><defs><linearGradient id="grad1_0" x1="40%" y1="0%" x2="100%" y2="100%"><stop offset="16.666666666666664%" stop-color="#b8b8b8" stop-opacity="1"></stop><stop offset="83.33333333333334%" stop-color="#b8b8b8" stop-opacity="1"></stop></linearGradient></defs><defs><linearGradient id="grad2_0" x1="0%" y1="0%" x2="60%" y2="100%"><stop offset="16.666666666666664%" stop-color="#b8b8b8" stop-opacity="1"></stop><stop offset="83.33333333333334%" stop-color="#b8b8b8" stop-opacity="1"></stop></linearGradient></defs><g transform="translate(480, 0)"><path d="M0 251.9C-31.4 223.9 -62.9 195.9 -103 178.4C-143.1 160.9 -191.9 153.9 -218.1 125.9C-244.4 98 -248.2 49 -251.9 0L0 0Z" fill="#7918f7"></path></g><g transform="translate(0, 288)"><path d="M0 -251.9C32 -224.8 64 -197.7 104 -180.1C144 -162.5 192.2 -154.4 218.1 -125.9C244.1 -97.5 248 -48.8 251.9 0L0 0Z" fill="#7918f7"></path></g></svg>